<mxfile host="app.diagrams.net" modified="2024-07-11T16:24:06.010Z" agent="Mozilla/5.0 (Macintosh; Intel Mac OS X 10_15_7) AppleWebKit/537.36 (KHTML, like Gecko) Chrome/126.0.0.0 Safari/537.36" version="24.6.4" etag="CfGO7hqx9YjtE49R2fFc" type="github">
  <diagram name="Page-1" id="UkGp1uad_g7IPvbJmkkJ">
    <mxGraphModel>
      <root>
        <mxCell id="0" />
        <mxCell id="1" parent="0" />
      </root>
    </mxGraphModel>
  </diagram>
</mxfile>
